<svg width="22" height="22" viewBox="0 0 22 22" fill="none" xmlns="http://www.w3.org/2000/svg">
<path d="M11.7315 5.3325H9.5985V9.5985H5.3325V11.7315H9.5985V15.9975H11.7315V11.7315H15.9975V9.5985H11.7315V5.3325ZM10.665 0C4.77792 0 0 4.77792 0 10.665C0 16.5521 4.77792 21.33 10.665 21.33C16.5521 21.33 21.33 16.5521 21.33 10.665C21.33 4.77792 16.5521 0 10.665 0ZM10.665 19.197C5.96173 19.197 2.133 15.3683 2.133 10.665C2.133 5.96173 5.96173 2.133 10.665 2.133C15.3683 2.133 19.197 5.96173 19.197 10.665C19.197 15.3683 15.3683 19.197 10.665 19.197Z" fill="#06295B"/>
</svg>
